<?xml version="1.0" encoding="UTF-8"?>
<svg version="1.1" xmlns="http://www.w3.org/2000/svg" width="360" height="372">
<path d="M0 0 C0.87140625 0.25652344 1.7428125 0.51304688 2.640625 0.77734375 C25.36964484 8.17379853 41.63374876 29.57184403 52.1484375 50.00268555 C56.51322962 58.65535262 60.5536654 67.38775404 63.49609375 76.63671875 C63.75632324 77.44963379 64.01655273 78.26254883 64.28466797 79.10009766 C64.79363516 80.71134785 65.28932165 82.3268686 65.77001953 83.94677734 C67.11294542 88.24708435 67.11294542 88.24708435 69.703125 91.859375 C72.92887132 93.46127624 76.27034301 94.58029936 79.6875 95.6875 C95.31087519 101.03017382 108.75777266 108.33048819 122.27685547 117.79833984 C123.8369705 118.88630899 125.41743339 119.94495559 127 121 C127 121.66 127 122.32 127 123 C127.59425781 123.27972656 128.18851562 123.55945313 128.80078125 123.84765625 C139.19766735 129.29540296 146.33109854 140.06314834 151.5 150.25 C151.83829834 150.91112793 152.17659668 151.57225586 152.52514648 152.25341797 C156.1476901 159.73844598 156.18166073 167.20001533 156.1875 175.375 C156.19974609 176.26960937 156.21199219 177.16421875 156.22460938 178.0859375 C156.25797949 193.39169701 150.39216032 205.80576019 140 217 C124.5904086 232.36702347 105.51197917 244.81864443 84.3671875 250.57421875 C83.37912109 250.85322021 82.39105469 251.13222168 81.37304688 251.41967773 C79.412834 251.96256731 77.44243705 252.4702406 75.46289062 252.93774414 C70.1984226 254.37711439 70.1984226 254.37711439 66.54711914 258.20800781 C65.49582164 260.78191621 64.70619131 263.31234926 64 266 C63.59136719 267.24265625 63.18273437 268.4853125 62.76171875 269.765625 C62.40722656 270.91546875 62.05273438 272.0653125 61.6875 273.25 C59.21557789 280.93345167 55.80156627 287.87312632 52 295 C51.51660156 295.95648438 51.03320312 296.91296875 50.53515625 297.8984375 C41.10890746 316.12425926 24.9928978 335.81692294 5 343 C-10.30134545 347.4475178 -28.68384478 347.01657839 -42.8359375 339.4921875 C-63.3548423 327.13486388 -77.91133925 308.13172706 -87.078125 286.1796875 C-87.73547641 284.62544138 -88.43876524 283.09029341 -89.171875 281.5703125 C-92.16093883 275.35232169 -94.35470958 269.08528263 -96.30053711 262.48217773 C-97.61127545 257.48143966 -97.61127545 257.48143966 -100 253 C-102.8904989 251.46754606 -102.8904989 251.46754606 -106.4375 250.25 C-107.803963 249.73068391 -109.1698208 249.20977333 -110.53515625 248.6875 C-111.26105957 248.41421875 -111.98696289 248.1409375 -112.73486328 247.859375 C-142.53751838 236.55248279 -173.37870682 219.62167997 -187.22265625 189.32421875 C-193.06196642 175.19685543 -192.91050663 159.34317591 -187.41015625 145.125 C-185.58296732 141.07582786 -183.69982375 137.52673312 -181 134 C-180.36320312 133.14019531 -179.72640625 132.28039062 -179.0703125 131.39453125 C-173.76770068 124.5539733 -167.9183109 119.17156007 -161 114 C-159.74509766 113.05833984 -159.74509766 113.05833984 -158.46484375 112.09765625 C-142.19330616 100.31304028 -121.32135412 90.83476311 -101.5625 86.75 C-97.96775503 86.33193355 -97.96775503 86.33193355 -96 84 C-95.40351647 82.01565875 -94.87316356 80.01127717 -94.375 78 C-86.50813569 49.80561769 -68.90287213 20.43035694 -43.6875 4.54296875 C-41.6875 3.5 -41.6875 3.5 -38 2 C-37.33484375 1.71769531 -36.6696875 1.43539063 -35.984375 1.14453125 C-24.87393168 -3.37173674 -11.43147903 -3.54700147 0 0 Z M-55.05078125 33.19921875 C-64.00307394 43.76615341 -70.42708116 56.29797583 -76.1875 68.8125 C-76.78582642 70.09326416 -76.78582642 70.09326416 -77.39624023 71.39990234 C-77.75403564 72.20250488 -78.11183105 73.00510742 -78.48046875 73.83203125 C-78.79910889 74.54077393 -79.11774902 75.2495166 -79.44604492 75.97973633 C-80.10207958 78.3722823 -79.66991144 79.65210735 -79 82 C-78.16649269 81.9110849 -78.16649269 81.9110849 -77.31614685 81.82037354 C-62.35809838 80.26819229 -47.54667726 79.68382243 -32.51196289 79.73925781 C-29.06834273 79.7499818 -25.62524522 79.73928307 -22.18164062 79.7265625 C-3.39131399 79.71376147 15.6043358 80.23101051 34.0625 84.0625 C35.82400819 84.40862542 37.58572252 84.75370359 39.34765625 85.09765625 C40.53512451 85.33379639 40.53512451 85.33379639 41.74658203 85.57470703 C44.82035129 86.15482686 47.89906441 86.59187144 51 87 C50.64856759 79.35172087 47.73820762 73.48313379 44.375 66.6875 C43.86582031 65.62337891 43.35664063 64.55925781 42.83203125 63.46289062 C38.00906017 53.55706406 32.38119201 44.46537403 25.48046875 35.875 C24.24315381 34.30795205 23.10753885 32.66130828 22 31 C21.34 31 20.68 31 20 31 C19.7628125 30.42121094 19.525625 29.84242187 19.28125 29.24609375 C14.43423778 20.74904488 3.3615285 16.08503886 -5.375 12.6875 C-25.9442103 8.78644287 -41.41794263 18.57962229 -55.05078125 33.19921875 Z M-73.3125 94.4375 C-74.10849609 94.55931641 -74.90449219 94.68113281 -75.72460938 94.80664062 C-81.16205495 95.58794337 -81.16205495 95.58794337 -86 98 C-87.56659627 100.78217096 -88.20189985 103.92037444 -89 107 C-89.2578125 107.95648438 -89.515625 108.91296875 -89.78125 109.8984375 C-98.89312465 147.5304798 -97.83443371 193.37787385 -90.1875 231.1875 C-90.04658936 231.93660645 -89.90567871 232.68571289 -89.76049805 233.45751953 C-89.02071077 236.75739575 -88.53977872 238.61256971 -85.73974609 240.62231445 C-50.92299464 258.1299716 6.88183128 253.40784537 43.5 247.125 C44.40758057 246.97579102 45.31516113 246.82658203 46.25024414 246.67285156 C47.50309204 246.43646973 47.50309204 246.43646973 48.78125 246.1953125 C49.50376953 246.06141113 50.22628906 245.92750977 50.97070312 245.78955078 C53.79964427 244.68887758 55.12612101 243.39077679 57 241 C58.0619656 237.86292883 58.0619656 237.86292883 58.6171875 234.296875 C58.73593231 233.64104431 58.85467712 232.98521362 58.97702026 232.30950928 C60.31666077 224.66303969 61.25623155 216.96186098 62.125 209.25 C62.20993713 208.50310913 62.29487427 207.75621826 62.38238525 206.98669434 C62.94689181 201.99362784 63.48199655 196.99810159 64 192 C64.15178711 190.55173828 64.15178711 190.55173828 64.30664062 189.07421875 C66.40883934 167.64204653 63.44651261 145.81548919 61.0625 124.5 C60.98327301 123.76385468 60.90404602 123.02770935 60.82241821 122.26925659 C60.59326553 120.1674374 60.34805998 118.0681312 60.09765625 115.96875 C59.95851807 114.76669922 59.81937988 113.56464844 59.67602539 112.32617188 C58.76096105 107.8238835 57.46340521 104.18769118 53.84375 101.25 C50.12882061 99.617064 46.47168209 98.78019563 42.5 98 C41.25790771 97.74899536 41.25790771 97.74899536 39.99072266 97.49291992 C33.80945521 96.27830839 27.60589973 95.23714508 21.375 94.3125 C20.1984082 94.13364258 20.1984082 94.13364258 18.99804688 93.95117188 C4.93852523 91.98170042 -9.26741387 91.83443139 -23.43847656 91.86962891 C-25.99810707 91.87499603 -28.5575622 91.86963875 -31.1171875 91.86328125 C-45.22944402 91.85625606 -59.36487925 92.0867774 -73.3125 94.4375 Z M-161.4375 133 C-170.35765774 142.38886882 -177.05987497 152.20445203 -177.4375 165.5 C-176.79644198 182.99468013 -168.07580937 195.38335657 -155.921875 207.21923828 C-142.64123381 219.52475109 -122.2304018 232.61496999 -104 235 C-102.5498765 232.099753 -103.27364979 230.04101513 -103.7421875 226.84765625 C-103.92136719 225.59533203 -104.10054688 224.34300781 -104.28515625 223.05273438 C-104.48135549 221.72259492 -104.67797246 220.39251702 -104.875 219.0625 C-107.2001927 203.11488527 -108.30031489 187.66746001 -108.375 171.5625 C-108.38055908 170.55587311 -108.38611816 169.54924622 -108.3918457 168.51211548 C-108.43921151 151.41085973 -106.90197678 134.98391473 -104.09375 118.13671875 C-103.18176696 112.64985827 -102.75348533 107.55274299 -103 102 C-122.20987336 102 -148.1503642 120.26981001 -161.4375 133 Z M73 108 C72.67 108.33 72.34 108.66 72 109 C72.19619377 116.95056373 73.71462439 124.85844681 75 132.6875 C76.54838919 142.48637471 77.76647313 152.07003155 78 162 C78.02046387 162.70543945 78.04092773 163.41087891 78.06201172 164.13769531 C78.58816525 184.13152958 76.26927498 203.68392503 72.90234375 223.36328125 C72.02917409 228.55850664 71.44496736 233.75198137 71 239 C72.99991189 240.28401174 72.99991189 240.28401174 75.29980469 239.32250977 C76.24758789 238.94924561 77.19537109 238.57598145 78.171875 238.19140625 C79.2225415 237.77793945 80.27320801 237.36447266 81.35571289 236.93847656 C82.47582764 236.4844043 83.59594238 236.03033203 84.75 235.5625 C85.88493896 235.10456055 87.01987793 234.64662109 88.18920898 234.17480469 C99.69119485 229.44347969 110.36782275 223.97073183 120 216 C120.65226562 215.48050781 121.30453125 214.96101563 121.9765625 214.42578125 C131.29984404 206.70437626 140.84811977 195.49337849 142.22460938 182.95385742 C143.13028888 165.10194929 139.74130509 154.46334262 127.65234375 140.73828125 C123.410468 136.35896623 118.91429624 132.60126768 114 129 C113.46842285 128.60603027 112.9368457 128.21206055 112.38916016 127.80615234 C101.28375709 119.67293553 86.83628016 109.92343573 73 108 Z M-82 257 C-81.64864123 261.12846552 -80.94874649 264.41317656 -79.2109375 268.18359375 C-78.67049805 269.36562378 -78.67049805 269.36562378 -78.11914062 270.5715332 C-77.74982422 271.37292725 -77.38050781 272.17432129 -77 273 C-76.33055572 274.5025269 -75.66128293 276.00513022 -74.9921875 277.5078125 C-70.20307374 288.04250767 -64.81849903 297.65095342 -58 307 C-57.33226562 307.93457031 -56.66453125 308.86914062 -55.9765625 309.83203125 C-49.09584089 318.97356139 -38.80224081 329.02578313 -27.265625 331.61328125 C-23.34572132 332.07748037 -19.50619422 332.18401309 -15.5625 332.1875 C-14.47485352 332.20586914 -14.47485352 332.20586914 -13.36523438 332.22460938 C0.03702481 332.26073406 10.78362241 325.23261038 20.0859375 316.10546875 C31.73735732 304.05797757 39.69186985 288.43219394 46.5625 273.3125 C46.90941895 272.55807617 47.25633789 271.80365234 47.61376953 271.02636719 C49.29044878 267.21924823 50.46123708 264.25176724 50 260 C47.85380963 260.11871213 45.70806688 260.24550689 43.5625 260.375 C41.77005859 260.47941406 41.77005859 260.47941406 39.94140625 260.5859375 C37.14342882 260.78158532 34.40204235 261.08398986 31.62280273 261.47436523 C19.26964631 263.20903823 6.99831356 263.33855664 -5.46264648 263.31567383 C-9.03205319 263.31252684 -12.60061766 263.33601042 -16.16992188 263.36132812 C-35.72532687 263.41474229 -54.71081482 261.5265081 -73.85546875 257.55078125 C-76.65730869 257.06002419 -79.16600533 256.88792111 -82 257 Z " fill="#50265E" transform="translate(201,12)"/>
<path d="M0 0 C1.21728035 -0.00956978 1.21728035 -0.00956978 2.45915222 -0.01933289 C3.32897232 -0.02044571 4.19879242 -0.02155853 5.0949707 -0.02270508 C6.45281425 -0.02769768 6.45281425 -0.02769768 7.83808899 -0.03279114 C9.75370782 -0.03785005 11.66933544 -0.04019978 13.58496094 -0.04003906 C16.49274555 -0.04221537 19.40014432 -0.06035391 22.30786133 -0.0793457 C24.1743965 -0.082282 26.04093346 -0.08426521 27.9074707 -0.08520508 C28.76716965 -0.09239059 29.62686859 -0.09957611 30.51261902 -0.10697937 C36.87966871 -0.08330053 43.87101487 0.04051627 49.20825195 3.83276367 C53.76185349 10.31288894 55.53597994 17.5330662 54.5480957 25.42260742 C53.86108303 28.52282426 53.07614465 30.8416478 51.08325195 33.33276367 C50.67075195 33.93088867 50.25825195 34.52901367 49.83325195 35.14526367 C50.5903297 38.34181415 51.82986189 40.14127536 53.95825195 42.64526367 C56.81205942 47.97237094 56.14966479 53.2213122 55.83325195 59.14526367 C56.67637939 58.98606445 57.51950684 58.82686523 58.38818359 58.6628418 C61.94329729 58.12873075 65.36128528 57.95302933 68.9543457 57.86401367 C69.94882469 57.83639954 69.94882469 57.83639954 70.96339417 57.80822754 C73.06576423 57.74997224 75.16821113 57.69696352 77.27075195 57.64526367 C80.04043043 57.57698684 82.80989163 57.50330351 85.5793457 57.42651367 C87.41517212 57.38107422 87.41517212 57.38107422 89.28808594 57.3347168 C92.85287072 57.14421525 96.30891715 56.70332807 99.83325195 56.14526367 C100.16325195 54.16526367 100.49325195 52.18526367 100.83325195 50.14526367 C95.18936752 48.15959744 89.52577748 46.51424016 83.72509766 45.05371094 C62.66067233 39.68627216 62.66067233 39.68627216 57.77075195 31.83276367 C55.87029977 24.35765175 54.94175044 17.5171611 57.83325195 10.14526367 C61.05320363 5.94143787 63.76936137 4.43355825 68.83325195 3.14526367 C72.36082773 2.86206049 75.87391819 2.86485851 79.41137695 2.87963867 C80.9230545 2.87676849 80.9230545 2.87676849 82.465271 2.87384033 C84.58663179 2.87248357 86.70800102 2.87614436 88.8293457 2.88452148 C92.08604365 2.89527289 95.34219557 2.88458592 98.59887695 2.87182617 C100.66137817 2.87314698 102.72387906 2.87570774 104.78637695 2.87963867 C105.7634259 2.87559021 106.74047485 2.87154175 107.74713135 2.86737061 C108.64856873 2.87367493 109.5500061 2.87997925 110.47875977 2.88647461 C111.67072968 2.88886139 111.67072968 2.88886139 112.88677979 2.89129639 C114.83325195 3.14526367 114.83325195 3.14526367 116.83325195 5.14526367 C117.0637207 7.45776367 117.0637207 7.45776367 117.02075195 10.14526367 C117.01108398 11.47557617 117.01108398 11.47557617 117.0012207 12.83276367 C116.83325195 15.14526367 116.83325195 15.14526367 115.83325195 17.14526367 C114.69259277 17.17031982 113.55193359 17.19537598 112.37670898 17.22119141 C108.15360854 17.3152066 103.93067486 17.41544154 99.70776367 17.51757812 C97.87837621 17.56094932 96.04894768 17.60262279 94.21948242 17.64257812 C91.59321709 17.70022785 88.96715886 17.76393732 86.34106445 17.82885742 C85.52018341 17.84556992 84.69930237 17.86228241 83.85354614 17.87950134 C79.70988235 17.88840237 79.70988235 17.88840237 75.83325195 19.14526367 C76.32825195 22.61026367 76.32825195 22.61026367 76.83325195 26.14526367 C83.13877126 28.65678407 89.42408178 30.59853248 96.02075195 32.14526367 C104.63482385 34.19905616 112.94970422 36.87879406 118.43481445 44.31713867 C121.18293584 49.87479198 120.61713592 56.13548662 119.83325195 62.14526367 C117.93055844 66.58488186 115.43103432 69.09751622 111.43261719 71.71948242 C106.36207013 73.7280285 101.74918819 73.5363613 96.3449707 73.47338867 C95.24602982 73.4715155 94.14708893 73.46964233 93.0148468 73.4677124 C90.70094756 73.46100786 88.38705934 73.44712531 86.07324219 73.42651367 C82.51592582 73.39522122 78.959052 73.38552726 75.40161133 73.37963867 C73.153559 73.37047401 70.90551121 73.36009996 68.6574707 73.34838867 C67.05291267 73.34201385 67.05291267 73.34201385 65.41593933 73.33551025 C64.43434341 73.32590271 63.4527475 73.31629517 62.44140625 73.30639648 C61.13951607 73.29615448 61.13951607 73.29615448 59.81132507 73.28570557 C57.83325195 73.14526367 57.83325195 73.14526367 56.83325195 72.14526367 C56.37865337 69.49063246 56.13081958 66.82337229 55.83325195 64.14526367 C55.45813477 64.67635742 55.08301758 65.20745117 54.6965332 65.75463867 C48.68589868 74.05143393 48.68589868 74.05143393 44.83325195 76.14526367 C36.09384818 77.52109815 27.09775914 77.3315596 18.26831055 77.33056641 C16.07231856 77.33277467 13.8768134 77.35107332 11.6809082 77.36987305 C-2.73362454 77.43531211 -2.73362454 77.43531211 -8.16674805 75.14526367 C-13.31020993 69.93232685 -12.74925228 64.00712913 -12.71192932 56.9963665 C-12.707332 56.3223385 -12.70273468 55.64831051 -12.69799805 54.95385742 C-12.70069572 53.56193267 -12.70458043 52.17000976 -12.70959473 50.77809143 C-12.71547505 47.86880452 -12.70697383 44.96001062 -12.68823242 42.05078125 C-12.66542135 38.32931844 -12.67858724 34.6090083 -12.70252228 30.88758755 C-12.71700247 28.01613232 -12.7123647 25.14494876 -12.70201111 22.27348518 C-12.69935101 20.90161056 -12.70258835 19.52971093 -12.71192932 18.15786552 C-12.72213181 16.23887505 -12.70381366 14.31979755 -12.68432617 12.40087891 C-12.6811438 11.31089096 -12.67796143 10.22090302 -12.67468262 9.09788513 C-12.03988045 5.4077829 -10.82522016 3.74843936 -8.16674805 1.14526367 C-5.46424874 0.05395462 -2.89679289 0.01554997 0 0 Z M3.83325195 15.14526367 C3.73392804 17.45600535 3.70355577 19.76989309 3.70825195 22.08276367 C3.70567383 23.34991211 3.7030957 24.61706055 3.70043945 25.92260742 C3.60819126 29.03681256 3.60819126 29.03681256 4.83325195 31.14526367 C12.64973437 34.16789357 27.1503718 33.17671325 34.83325195 30.14526367 C37.34676975 28.289611 37.34676975 28.289611 37.83325195 25.14526367 C37.43445635 19.20198038 37.43445635 19.20198038 34.83325195 14.14526367 C32.62674539 14.04513966 30.41702809 14.01445187 28.20825195 14.01245117 C27.21510986 14.01101608 27.21510986 14.01101608 26.2019043 14.009552 C24.79972234 14.00887041 23.39753725 14.01072325 21.99536133 14.01489258 C19.84229482 14.02024121 17.68943693 14.01494698 15.53637695 14.00854492 C14.17700149 14.00920571 12.81762616 14.01048688 11.45825195 14.01245117 C9.59040039 14.01414307 9.59040039 14.01414307 7.68481445 14.01586914 C4.93419765 13.8195424 4.93419765 13.8195424 3.83325195 15.14526367 Z M3.83325195 45.14526367 C3.77941347 47.60388768 3.73966157 50.06133917 3.70825195 52.52026367 C3.69149414 53.21893555 3.67473633 53.91760742 3.6574707 54.63745117 C3.63980929 56.47423853 3.73021935 58.3112833 3.83325195 60.14526367 C7.13307147 63.44508319 11.27729412 62.44183467 15.7668457 62.4675293 C17.7178418 62.46269531 17.7178418 62.46269531 19.70825195 62.45776367 C21.00118164 62.47387695 22.29411133 62.48999023 23.6262207 62.5065918 C24.86758789 62.50723633 26.10895508 62.50788086 27.38793945 62.50854492 C28.52730957 62.51152588 29.66667969 62.51450684 30.84057617 62.51757812 C34.1578481 62.10488114 35.53038727 61.54240762 37.83325195 59.14526367 C38.95253637 54.18843268 39.45676711 50.70189527 36.83325195 46.14526367 C33.85965746 44.65846643 31.17026016 45.03413762 27.85668945 45.04760742 C27.17144196 45.04902237 26.48619446 45.05043732 25.78018188 45.05189514 C23.58949435 45.05749693 21.39890865 45.07004961 19.20825195 45.08276367 C17.72387843 45.08777845 16.2395033 45.09234139 14.75512695 45.09643555 C11.1144688 45.1074669 7.47387031 45.12473268 3.83325195 45.14526367 Z " fill="#4C1F5E" transform="translate(132.166748046875,150.854736328125)"/>
<path d="M0 0 C1.51167755 -0.00287018 1.51167755 -0.00287018 3.05389404 -0.00579834 C5.17525483 -0.0071551 7.29662407 -0.00349431 9.41796875 0.00488281 C12.6746667 0.01563422 15.93081862 0.00494725 19.1875 -0.0078125 C21.25000122 -0.00649169 23.3125021 -0.00393093 25.375 0 C26.35204895 -0.00404846 27.3290979 -0.00809692 28.33575439 -0.01226807 C29.23719177 -0.00596375 30.13862915 0.00034058 31.06738281 0.00683594 C32.25935272 0.00922272 32.25935272 0.00922272 33.47540283 0.01165771 C35.421875 0.265625 35.421875 0.265625 37.421875 2.265625 C37.65234375 4.578125 37.65234375 4.578125 37.609375 7.265625 C37.59970703 8.5959375 37.59970703 8.5959375 37.58984375 9.953125 C37.421875 12.265625 37.421875 12.265625 36.421875 14.265625 C35.28121582 14.29068115 34.14055664 14.3157373 32.96533203 14.34155273 C28.74223159 14.43556793 24.51929791 14.53580287 20.29638672 14.63793945 C18.46699925 14.68131065 16.63757073 14.72298411 14.80810547 14.76293945 C12.18184014 14.82058918 9.5557819 14.88429865 6.9296875 14.94921875 C6.10880646 14.96593124 5.28792542 14.98264374 4.44216919 14.99986267 C0.2985054 15.0087637 0.2985054 15.0087637 -3.578125 16.265625 C-3.083125 19.730625 -3.083125 19.730625 -2.578125 23.265625 C3.72739431 25.7771454 10.01270483 27.7188938 16.609375 29.265625 C25.2234469 31.31941748 33.53832726 33.99915539 39.0234375 41.4375 C41.77155889 46.99515331 41.20575896 53.25584795 40.421875 59.265625 C38.51918149 63.70524319 36.01965736 66.21787755 32.02124023 68.83984375 C26.95069317 70.84838983 22.33781124 70.65672263 16.93359375 70.59375 C15.83465286 70.59187683 14.73571198 70.59000366 13.60346985 70.58807373 C11.2895706 70.58136919 8.97568239 70.56748664 6.66186523 70.546875 C3.10454887 70.51558255 -0.45232495 70.50588858 -4.00976562 70.5 C-6.25781795 70.49083534 -8.50586575 70.48046129 -10.75390625 70.46875 C-12.35846428 70.46237518 -12.35846428 70.46237518 -13.99543762 70.45587158 C-14.97703354 70.44626404 -15.95862946 70.43665649 -16.9699707 70.42675781 C-18.27186089 70.41651581 -18.27186089 70.41651581 -19.60005188 70.40606689 C-21.578125 70.265625 -21.578125 70.265625 -22.578125 69.265625 C-23.03272358 66.61099379 -23.28055738 63.94373362 -23.578125 61.265625 C-23.95324219 61.79671875 -24.32835937 62.3278125 -24.71484375 62.875 C-30.72547827 71.17179525 -30.72547827 71.17179525 -34.578125 73.265625 C-43.31752877 74.64145948 -52.31361781 74.45192092 -61.14306641 74.45092773 C-63.33905839 74.45313599 -65.53456355 74.47143465 -67.73046875 74.49023438 C-82.14500149 74.55567343 -82.14500149 74.55567343 -87.578125 72.265625 C-92.37370001 67.44908279 -92.03288371 62.54374112 -92.03131104 55.98049927 C-92.01088926 54.61980546 -91.99002536 53.25911823 -91.96875 51.8984375 C-91.96128152 50.49454558 -91.95559146 49.09064317 -91.95159912 47.68673706 C-91.93639016 44.00727108 -91.89715082 40.32844545 -91.8527832 36.64923096 C-91.81172714 32.8886379 -91.79356618 29.12794049 -91.7734375 25.3671875 C-91.73065059 17.99970935 -91.66245848 10.6327572 -91.578125 3.265625 C-90.918125 2.935625 -90.258125 2.605625 -89.578125 2.265625 C-89.58478683 3.04379074 -89.59144867 3.82195648 -89.59831238 4.623703 C-89.65848129 11.96548255 -89.70412861 19.30714215 -89.73356152 26.64910412 C-89.74920211 30.42348456 -89.77041061 34.19766086 -89.80444336 37.97192383 C-89.83709476 41.61589368 -89.8549901 45.25966747 -89.86275673 48.90377235 C-89.86828992 50.29242348 -89.87909503 51.68106416 -89.89531517 53.06963158 C-89.91716356 55.01791245 -89.91835104 56.96639158 -89.91870117 58.91479492 C-89.92536301 60.0228801 -89.93202484 61.13096527 -89.93888855 62.27262878 C-89.53019362 65.66327729 -88.59875545 67.53706928 -86.578125 70.265625 C-84.186635 71.46137 -82.6350695 71.42417643 -79.96411133 71.47436523 C-79.00583939 71.49365585 -78.04756744 71.51294647 -77.06025696 71.53282166 C-72.6657788 71.59057175 -68.2714656 71.63986083 -63.87670898 71.6706543 C-61.56145295 71.69221947 -59.24627812 71.7263043 -56.93139648 71.77319336 C-53.59061319 71.84025244 -50.25151805 71.86766629 -46.91015625 71.88671875 C-45.36603813 71.92846474 -45.36603813 71.92846474 -43.79072571 71.97105408 C-37.71612624 71.95375075 -34.30097628 71.17901522 -29.89904785 66.88320923 C-25.58141043 61.59588894 -25.15907621 56.31742822 -25.390625 49.828125 C-25.40416016 49.09658203 -25.41769531 48.36503906 -25.43164062 47.61132812 C-25.46658626 45.82910078 -25.52037695 44.04725927 -25.578125 42.265625 C-24.918125 42.595625 -24.258125 42.925625 -23.578125 43.265625 C-23.578125 47.555625 -23.578125 51.845625 -23.578125 56.265625 C-21.598125 55.935625 -19.618125 55.605625 -17.578125 55.265625 C-15.20622198 55.13406923 -12.83185111 55.04320957 -10.45703125 54.984375 C-9.46255226 54.95676086 -9.46255226 54.95676086 -8.44798279 54.92858887 C-6.34561273 54.87033357 -4.24316582 54.81732484 -2.140625 54.765625 C0.62905347 54.69734817 3.39851467 54.62366484 6.16796875 54.546875 C8.00379517 54.50143555 8.00379517 54.50143555 9.87670898 54.45507812 C13.44149376 54.26457658 16.8975402 53.82368939 20.421875 53.265625 C20.751875 51.285625 21.081875 49.305625 21.421875 47.265625 C15.77799057 45.27995877 10.11440052 43.63460149 4.3137207 42.17407227 C-16.75070462 36.80663349 -16.75070462 36.80663349 -21.640625 28.953125 C-23.54107718 21.47801308 -24.46962651 14.63752243 -21.578125 7.265625 C-15.87206925 -0.18394779 -8.66382553 -0.03619908 0 0 Z " fill="#C73A1A" transform="translate(211.578125,153.734375)"/>
<path d="M0 0 C1.80910355 -0.00143509 1.80910355 -0.00143509 3.65475464 -0.00289917 C6.18764295 -0.0035756 8.72053305 -0.00175907 11.25341797 0.00244141 C15.11299552 0.00780667 18.97245722 0.00247321 22.83203125 -0.00390625 C25.30468775 -0.00324556 27.77734419 -0.00196458 30.25 0 C31.96595871 -0.00303635 31.96595871 -0.00303635 33.71658325 -0.00613403 C39.89252094 0.01180878 45.86865903 0.31984043 51.9921875 1.1328125 C51.9921875 1.4628125 51.9921875 1.7928125 51.9921875 2.1328125 C51.31583755 2.13059189 50.63948761 2.12837128 49.94264221 2.12608337 C42.81943294 2.10373391 35.69623383 2.08878399 28.57299805 2.07788086 C25.92454005 2.07346409 23.27613825 2.06609969 20.62768555 2.05737305 C-5.97579116 1.79651853 -5.97579116 1.79651853 -32.3828125 4.6328125 C-33.1871875 4.76300781 -33.9915625 4.89320312 -34.8203125 5.02734375 C-37.97782001 5.55007493 -40.96693276 6.11918592 -44.0078125 7.1328125 C-45.2381845 10.157477 -46.16465428 12.99172049 -47.0078125 16.1328125 C-47.26691406 17.09058594 -47.52601562 18.04835938 -47.79296875 19.03515625 C-56.26611806 54.16253404 -54.61734074 94.55898284 -50.0078125 130.1328125 C-49.89630859 131.00309082 -49.78480469 131.87336914 -49.66992188 132.77001953 C-49.31684682 135.29960407 -48.89668239 137.80659207 -48.4453125 140.3203125 C-48.33791748 141.06941895 -48.23052246 141.81852539 -48.11987305 142.59033203 C-47.71779283 144.98452044 -47.71779283 144.98452044 -46.0078125 148.1328125 C-43.1551535 149.78169121 -40.20572072 150.42617744 -37.0078125 151.1328125 C-35.53185098 151.55746655 -34.05658552 151.98454746 -32.58203125 152.4140625 C0.27865364 160.89896021 35.12768612 160.13144795 68.66503906 157.40283203 C74.10600565 156.96126254 79.54921424 156.54878958 84.9921875 156.1328125 C79.53169972 159.33398735 73.1032714 159.19389541 66.9296875 159.7578125 C66.22812531 159.82284973 65.52656311 159.88788696 64.80374146 159.95489502 C-21.5669696 167.7600411 -21.5669696 167.7600411 -48.0078125 150.1328125 C-48.85166841 147.58322649 -49.50507156 145.18278278 -50.0703125 142.5703125 C-50.24022705 141.80871826 -50.4101416 141.04712402 -50.58520508 140.26245117 C-58.79637428 101.9659995 -58.2526537 56.55112815 -50.0703125 18.3203125 C-49.91264404 17.57281738 -49.75497559 16.82532227 -49.5925293 16.05517578 C-47.76745261 8.07606859 -47.76745261 8.07606859 -45.0078125 5.1328125 C-41.74331907 3.94419 -38.43236777 3.416262 -35.0078125 2.8828125 C-34.11191406 2.72296875 -33.21601562 2.563125 -32.29296875 2.3984375 C-21.53781158 0.54676051 -10.90191394 -0.01935918 0 0 Z " fill="#EBE4F0" transform="translate(160.0078125,102.8671875)"/>
<path d="M0 0 C-0.26049206 6.10582776 -0.52712751 12.21134374 -0.79956055 18.31665039 C-0.89143774 20.39535165 -0.98161014 22.47412896 -1.07006836 24.55297852 C-1.19721735 27.53423167 -1.33041568 30.51516108 -1.46484375 33.49609375 C-1.52272316 34.89921059 -1.52272316 34.89921059 -1.58177185 36.33067322 C-1.62173782 37.19149002 -1.6617038 38.05230682 -1.70288086 38.93920898 C-1.73619003 39.70087875 -1.76949921 40.46254852 -1.80381775 41.24729919 C-2 43 -2 43 -3 44 C-4.83588313 54.58647934 -5.18676322 65.2114595 -5.1875 75.9375 C-5.18858765 77.62335205 -5.18858765 77.62335205 -5.18969727 79.34326172 C-5.14959543 85.45045566 -4.83495527 91.44584598 -4.21020508 97.52001953 C-4.02405394 99.7162138 -3.98106664 101.82648466 -4.03125 104.02734375 C-3.99234167 108.97356466 -3.27282971 113.6853179 -2.5 118.5625 C-1.57308488 124.43713773 -0.80397547 130.04575492 -1 136 C-6.69139902 134.90301833 -11.74567937 133.45946923 -17 131 C-13.07438708 129.69146236 -11.58007807 130.80572327 -7.9375 132.40625 C-5.81649258 133.26122821 -5.81649258 133.26122821 -3 132 C-3.17390259 130.76866333 -3.17390259 130.76866333 -3.35131836 129.51245117 C-3.78769876 126.41329984 -4.22164885 123.31381978 -4.65405273 120.21411133 C-4.93095695 118.23428194 -5.21056306 116.25483103 -5.49023438 114.27539062 C-7.50125232 99.8326254 -8.34222891 85.69695517 -8.4375 71.125 C-8.44825562 69.64129913 -8.44825562 69.64129913 -8.45922852 68.12762451 C-8.5446064 45.44844311 -5.61937786 23.34837479 -2 1 C-11.86682417 4.76131466 -21.67224246 8.52832956 -31.1875 13.125 C-32.04923828 13.52847656 -32.91097656 13.93195313 -33.79882812 14.34765625 C-38.94397948 16.80820991 -43.45921351 19.54679025 -48 23 C-48.66 22.67 -49.32 22.34 -50 22 C-43.19682852 16.93339332 -36.30361679 12.89895072 -28.625 9.3125 C-27.67367187 8.85294922 -26.72234375 8.39339844 -25.7421875 7.91992188 C-8.18367566 -0.39664353 -8.18367566 -0.39664353 0 0 Z " fill="#562656" transform="translate(100,113)"/>
<path d="M0 0 C0.598125 0.20625 1.19625 0.4125 1.8125 0.625 C1.1525 1.285 0.4925 1.945 -0.1875 2.625 C-0.44672286 5.54357331 -0.58574734 8.37293001 -0.63671875 11.296875 C-0.65845657 12.17087952 -0.6801944 13.04488403 -0.70259094 13.94537354 C-0.74659551 15.80478603 -0.78577515 17.6643179 -0.82055664 19.52392578 C-0.87399502 22.32237131 -0.94446849 25.11997622 -1.01757812 27.91796875 C-1.30655509 40.24118948 -1.22039486 52.42763086 0.8125 64.625 C1.410625 64.769375 2.00875 64.91375 2.625 65.0625 C4.37400404 65.5122439 6.09927023 66.05392341 7.8125 66.625 C8.1425 67.615 8.4725 68.605 8.8125 69.625 C1.57148264 70.23864554 1.57148264 70.23864554 -2.125 67.25 C-5.11416838 63.44560388 -5.31817241 61.61766198 -5.34863281 56.83007812 C-5.35824036 55.6154187 -5.3678479 54.40075928 -5.37774658 53.14929199 C-5.38199646 51.83158813 -5.38624634 50.51388428 -5.390625 49.15625 C-5.39637563 47.79626462 -5.40213337 46.43627927 -5.40789795 45.07629395 C-5.41840496 42.22484967 -5.42425004 39.37343357 -5.42773438 36.52197266 C-5.43322831 32.86311134 -5.45727619 29.20462045 -5.48570633 25.54587555 C-5.50429962 22.73723244 -5.50953645 19.92867932 -5.51107025 17.11997986 C-5.51558058 15.11351221 -5.53423985 13.10709266 -5.55303955 11.10070801 C-5.55003845 9.88604858 -5.54703735 8.67138916 -5.54394531 7.41992188 C-5.54759094 6.34673706 -5.55123657 5.27355225 -5.55499268 4.16784668 C-5.43372009 3.32870728 -5.31244751 2.48956787 -5.1875 1.625 C-2.1875 -0.375 -2.1875 -0.375 0 0 Z " fill="#2E0241" transform="translate(126.1875,156.375)"/>
<path d="M0 0 C1.34569165 2.69138331 1.0978246 4.73441866 1.06591797 7.74731445 C1.05615936 8.9522908 1.04640076 10.15726715 1.03634644 11.39875793 C1.02177399 12.70705063 1.00720154 14.01534332 0.9921875 15.36328125 C0.98270342 16.71607391 0.97409944 18.06887299 0.96633911 19.42167664 C0.93273066 25.17146625 0.89122418 30.9211017 0.82861328 36.6706543 C0.79088664 40.18722834 0.7679172 43.70364201 0.75430679 47.22038841 C0.74236643 49.20848854 0.71418666 51.19646971 0.6857605 53.18440247 C0.68230621 54.3988353 0.67885193 55.61326813 0.67529297 56.86450195 C0.66561493 57.93102493 0.65593689 58.99754791 0.64596558 60.09638977 C1.05324321 63.43667369 2.01604086 65.30598021 4 68 C6.39149 69.195745 7.9430555 69.15855143 10.61401367 69.20874023 C11.57228561 69.22803085 12.53055756 69.24732147 13.51786804 69.26719666 C17.9123462 69.32494675 22.3066594 69.37423583 26.70141602 69.4050293 C29.01667205 69.42659447 31.33184688 69.4606793 33.64672852 69.50756836 C36.98751181 69.57462744 40.32660695 69.60204129 43.66796875 69.62109375 C45.21208687 69.66283974 45.21208687 69.66283974 46.78739929 69.70542908 C52.86199876 69.68812575 56.27714872 68.91339022 60.67907715 64.61758423 C64.99671457 59.33026394 65.41904879 54.05180322 65.1875 47.5625 C65.17396484 46.83095703 65.16042969 46.09941406 65.14648438 45.34570312 C65.11153874 43.56347578 65.05774805 41.78163427 65 40 C65.66 40.33 66.32 40.66 67 41 C67 45.29 67 49.58 67 54 C68.98 54.495 68.98 54.495 71 55 C70.67 58.96 70.34 62.92 70 67 C86.17 67 102.34 67 119 67 C119 67.33 119 67.66 119 68 C111.89755001 68.02526787 104.79511152 68.04283201 97.69262695 68.05493164 C95.27432828 68.05997349 92.85603267 68.06680678 90.43774414 68.07543945 C86.97020717 68.08751157 83.50271034 68.09322963 80.03515625 68.09765625 C78.94662857 68.10281754 77.85810089 68.10797882 76.73658752 68.11329651 C75.23514442 68.11340981 75.23514442 68.11340981 73.70336914 68.11352539 C72.37433311 68.11685631 72.37433311 68.11685631 71.01844788 68.12025452 C69 68 69 68 68 67 C67.54540142 64.34536879 67.29756762 61.67810862 67 59 C66.62488281 59.53109375 66.24976563 60.0621875 65.86328125 60.609375 C59.85264673 68.90617025 59.85264673 68.90617025 56 71 C47.26059623 72.37583448 38.26450719 72.18629592 29.43505859 72.18530273 C27.23906661 72.18751099 25.04356145 72.20580965 22.84765625 72.22460938 C8.43312351 72.29004843 8.43312351 72.29004843 3 70 C-1.78109804 65.18831924 -1.463591 60.293983 -1.47883606 53.74052429 C-1.46172896 52.38299837 -1.44403022 51.0254798 -1.42578125 49.66796875 C-1.42085343 48.26646896 -1.4175571 46.86496257 -1.41581726 45.4634552 C-1.40820158 42.53735075 -1.38770834 39.61173975 -1.35668945 36.68579102 C-1.31693266 32.92841594 -1.29904896 29.17135989 -1.28938007 25.41379833 C-1.27943299 21.83181171 -1.25954153 18.24990345 -1.23828125 14.66796875 C-1.2348855 13.982134 -1.23148975 13.29629925 -1.2279911 12.58968163 C-1.21646706 10.66025186 -1.19694276 8.7308748 -1.17700195 6.80151367 C-1.16715775 5.70264328 -1.15731354 4.60377289 -1.14717102 3.47160339 C-1 1 -1 1 0 0 Z " fill="#D5C2D9" transform="translate(121,156)"/>
<path d="M0 0 C1.51167755 -0.00287018 1.51167755 -0.00287018 3.05389404 -0.00579834 C5.17525483 -0.0071551 7.29662407 -0.00349431 9.41796875 0.00488281 C12.6746667 0.01563422 15.93081862 0.00494725 19.1875 -0.0078125 C21.25000122 -0.00649169 23.3125021 -0.00393093 25.375 0 C26.35204895 -0.00404846 27.3290979 -0.00809692 28.33575439 -0.01226807 C29.23719177 -0.00596375 30.13862915 0.00034058 31.06738281 0.00683594 C32.25935272 0.00922272 32.25935272 0.00922272 33.47540283 0.01165771 C35.421875 0.265625 35.421875 0.265625 37.421875 2.265625 C37.65234375 4.578125 37.65234375 4.578125 37.609375 7.265625 C37.60292969 8.1525 37.59648437 9.039375 37.58984375 9.953125 C37.421875 12.265625 37.421875 12.265625 36.421875 14.265625 C35.28121582 14.29068115 34.14055664 14.3157373 32.96533203 14.34155273 C28.74223159 14.43556793 24.51929791 14.53580287 20.29638672 14.63793945 C18.46699925 14.68131065 16.63757073 14.72298411 14.80810547 14.76293945 C12.18184014 14.82058918 9.5557819 14.88429865 6.9296875 14.94921875 C5.69836594 14.97428749 5.69836594 14.97428749 4.44216919 14.99986267 C0.2985054 15.0087637 0.2985054 15.0087637 -3.578125 16.265625 C-3.6397192 19.67698976 -3.6397192 19.67698976 -2.578125 23.265625 C-0.29671158 24.85603339 1.72061613 25.43069044 4.421875 26.265625 C2.734375 26.953125 2.734375 26.953125 0.421875 27.265625 C-4.20889423 25.00408654 -4.20889423 25.00408654 -5.578125 22.265625 C-5.828125 18.765625 -5.828125 18.765625 -5.578125 15.265625 C-1.69319338 12.67567059 1.52754736 13.01336958 6.02734375 13.0703125 C6.86654861 13.0731424 7.70575348 13.07597229 8.57038879 13.07888794 C11.25019603 13.09008115 13.92966881 13.11518399 16.609375 13.140625 C18.42642746 13.15065592 20.24348517 13.15978157 22.06054688 13.16796875 C26.51445175 13.19001766 30.96810667 13.22454149 35.421875 13.265625 C35.421875 9.965625 35.421875 6.665625 35.421875 3.265625 C28.94375447 3.35916912 22.46600725 3.46526607 15.98828125 3.58300781 C13.78456253 3.62129386 11.58078139 3.65614737 9.37695312 3.6875 C6.20940848 3.7331583 3.04229338 3.79115202 -0.125 3.8515625 C-1.60332306 3.86888931 -1.60332306 3.86888931 -3.11151123 3.88656616 C-4.0321637 3.90643585 -4.95281616 3.92630554 -5.90136719 3.94677734 C-7.11382111 3.96676285 -7.11382111 3.96676285 -8.35076904 3.9871521 C-10.79592707 4.29285548 -12.45319346 5.04610006 -14.578125 6.265625 C-14.908125 5.605625 -15.238125 4.945625 -15.578125 4.265625 C-18.60396514 7.09624964 -20.42231711 8.94225437 -20.7109375 13.24609375 C-20.70264589 15.588473 -20.65793412 17.92455759 -20.578125 20.265625 C-20.55298828 21.33296875 -20.55298828 21.33296875 -20.52734375 22.421875 C-20.1526819 27.98827959 -18.32412103 30.42357779 -14.578125 34.265625 C-16.890625 33.703125 -16.890625 33.703125 -19.578125 32.265625 C-23.67987703 25.08755895 -24.45648414 17.2584569 -22.3671875 9.27734375 C-20.73636452 5.1195525 -18.06860805 2.92593624 -14.06738281 1.15332031 C-9.3387829 -0.04967362 -4.86034117 -0.02030741 0 0 Z " fill="#E8A999" transform="translate(211.578125,153.734375)"/>
<path d="M0 0 C-0.9375 1.9375 -0.9375 1.9375 -3 4 C-9.24774898 5.43675538 -15.96141331 5.14709639 -22.3359375 5.1328125 C-23.77593613 5.13424759 -23.77593613 5.13424759 -25.24502563 5.13571167 C-27.26361151 5.13638817 -29.28219963 5.13457109 -31.30078125 5.13037109 C-34.35942573 5.12502721 -37.41792259 5.13032815 -40.4765625 5.13671875 C-42.45052115 5.13605765 -44.42447971 5.13477581 -46.3984375 5.1328125 C-47.74740616 5.13584885 -47.74740616 5.13584885 -49.12362671 5.13894653 C-55.46084405 5.11601347 -61.69859586 4.66338036 -68 4 C-64.66263651 1.18178194 -62.62764783 0.68920694 -58.1953125 0.796875 C-56 1 -56 1 -53.47192383 1.53393555 C-49.0016716 2.13401371 -44.74682736 1.90771408 -40.25390625 1.66015625 C-39.32456772 1.61434921 -38.39522919 1.56854218 -37.43772888 1.52134705 C-34.47897708 1.37445492 -31.52076534 1.21885754 -28.5625 1.0625 C-25.6077466 0.91135124 -22.65291183 0.76203901 -19.69798279 0.61436462 C-17.86360235 0.52215462 -16.02933387 0.42768005 -14.19520569 0.33058167 C-9.45532626 0.08671557 -4.74615193 -0.04863931 0 0 Z " fill="#270236" transform="translate(226,270)"/>
<path d="M0 0 C0.87140625 0.25652344 1.7428125 0.51304688 2.640625 0.77734375 C9.57707059 3.0345949 15.39242976 6.31548659 21 11 C21.495 11.99 21.495 11.99 22 13 C19.44034563 11.73009395 16.89585825 10.43284684 14.35546875 9.125 C12.96623006 8.41650149 11.57690465 7.70817301 10.1875 7 C9.50107422 6.64421875 8.81464844 6.2884375 8.10742188 5.921875 C0.2814055 1.95333689 -6.58985355 0.65619115 -15.3125 0.6875 C-16.6418457 0.66333008 -16.6418457 0.66333008 -17.99804688 0.63867188 C-33.56327218 0.62731868 -47.14306035 8.12962285 -58.0625 18.890625 C-61.27367489 22.20941299 -64.23978907 25.70861621 -67.125 29.3125 C-67.58664551 29.88685791 -68.04829102 30.46121582 -68.52392578 31.05297852 C-71.24155194 34.58589252 -72.64404059 37.79533638 -74 42 C-75.82953382 44.03808172 -77.77677069 45.35674356 -80 47 C-73.70983912 30.19628451 -57.73936415 11.8557649 -41.6875 3.5 C-39.8621875 2.7575 -39.8621875 2.7575 -38 2 C-37.33484375 1.71769531 -36.6696875 1.43539063 -35.984375 1.14453125 C-24.87393168 -3.37173674 -11.43147903 -3.54700147 0 0 Z " fill="#EEEAF2" transform="translate(201,12)"/>
<path d="M0 0 C-0.32874534 9.89636844 -1.06535449 19.26764225 -3.20092773 28.9675293 C-6.17286013 43.32111253 -6.37617421 58.02722051 -6.625 72.625 C-6.66331953 74.51824435 -6.70237846 76.41147388 -6.7421875 78.3046875 C-6.83660791 82.86966669 -6.92116683 87.43472614 -7 92 C-7.33 92 -7.66 92 -8 92 C-8.83886587 61.08886805 -6.94387496 31.52667474 -2 1 C-11.86682417 4.76131466 -21.67224246 8.52832956 -31.1875 13.125 C-32.04923828 13.52847656 -32.91097656 13.93195313 -33.79882812 14.34765625 C-38.94397948 16.80820991 -43.45921351 19.54679025 -48 23 C-48.66 22.67 -49.32 22.34 -50 22 C-43.19682852 16.93339332 -36.30361679 12.89895072 -28.625 9.3125 C-27.67367187 8.85294922 -26.72234375 8.39339844 -25.7421875 7.91992188 C-8.18367566 -0.39664353 -8.18367566 -0.39664353 0 0 Z " fill="#E8E2EB" transform="translate(100,113)"/>
<path d="M0 0 C0.495 3.96 0.495 3.96 1 8 C-0.65 8 -2.3 8 -4 8 C-3.34 7.01 -2.68 6.02 -2 5 C-2.66 4.67 -3.32 4.34 -4 4 C-4 4.66 -4 5.32 -4 6 C-6.2910905 6.19441368 -8.58290337 6.38033135 -10.875 6.5625 C-12.78925781 6.71912109 -12.78925781 6.71912109 -14.7421875 6.87890625 C-18 7 -18 7 -20 6 C-20 5.34 -20 4.68 -20 4 C-20.67546875 4.15597656 -21.3509375 4.31195313 -22.046875 4.47265625 C-22.93890625 4.66730469 -23.8309375 4.86195313 -24.75 5.0625 C-25.63171875 5.25972656 -26.5134375 5.45695313 -27.421875 5.66015625 C-30.05941259 6.00783166 -31.49059312 5.75680525 -34 5 C-35.58025005 4.78807905 -37.16398461 4.60076629 -38.75 4.4375 C-39.54921875 4.35371094 -40.3484375 4.26992187 -41.171875 4.18359375 C-41.77515625 4.12300781 -42.3784375 4.06242188 -43 4 C-43 3.01 -43 2.02 -43 1 C-37.84052331 0.85653282 -32.68101822 0.71415053 -27.52148438 0.57275391 C-25.76789551 0.52454639 -24.01431463 0.47604742 -22.26074219 0.42724609 C-19.73374464 0.35697204 -17.2067198 0.28776158 -14.6796875 0.21875 C-13.90132538 0.19687622 -13.12296326 0.17500244 -12.3210144 0.15246582 C-8.21245693 0.04135575 -4.11057623 -0.0228683 0 0 Z " fill="#B12203" transform="translate(245,156)"/>
<path d="M0 0 C3.89059081 3.40043764 3.89059081 3.40043764 4.390625 6.140625 C4.26041667 8.09375 4.13020833 10.046875 4 12 C4.66 12 5.32 12 6 12 C6 11.01 6 10.02 6 9 C7.65 9 9.3 9 11 9 C11.33 11.64 11.66 14.28 12 17 C11.01 17.33 10.02 17.66 9 18 C8.31513275 19.32407669 7.65129797 20.65909241 7 22 C5.66666667 23.33333333 4.33333333 24.66666667 3 26 C2.525625 26.804375 2.05125 27.60875 1.5625 28.4375 C-0.25923393 31.42514365 -2.46626243 33.60322121 -5 36 C-4.80664062 35.443125 -4.61328125 34.88625 -4.4140625 34.3125 C-4.15367187 33.549375 -3.89328125 32.78625 -3.625 32 C-3.24214844 30.88625 -3.24214844 30.88625 -2.8515625 29.75 C-0.62311352 22.55354091 0.27503162 16.51312177 0.125 9 C0.11597656 8.12988281 0.10695313 7.25976562 0.09765625 6.36328125 C0.07434619 4.2420658 0.03848579 2.12099438 0 0 Z " fill="#4A145A" transform="translate(344,174)"/>
<path d="M0 0 C0.99 0.33 1.98 0.66 3 1 C2.67 4.3 2.34 7.6 2 11 C-1.60421908 11.02728173 -5.20822616 11.0469739 -8.8125 11.0625 C-9.81732422 11.07087891 -10.82214844 11.07925781 -11.85742188 11.08789062 C-18.62868824 11.10966319 -25.26910926 10.7369831 -32 10 C-31.34 9.34 -30.68 8.68 -30 8 C-30.33 7.34 -30.66 6.68 -31 6 C-27.17010894 4.19769832 -24.21878192 3.80377759 -20 4 C-20 4.66 -20 5.32 -20 6 C-14.72 6 -9.44 6 -4 6 C-4 5.34 -4 4.68 -4 4 C-3.01 4.33 -2.02 4.66 -1 5 C-1.66 5.66 -2.32 6.32 -3 7 C-2.01 7 -1.02 7 0 7 C-0.185625 6.030625 -0.37125 5.06125 -0.5625 4.0625 C-0.706875 3.051875 -0.85125 2.04125 -1 1 C-0.67 0.67 -0.34 0.34 0 0 Z " fill="#C72D09" transform="translate(245,156)"/>
<path d="M0 0 C3.35409194 -0.05859857 6.70805017 -0.09379582 10.0625 -0.125 C11.47692383 -0.15013672 11.47692383 -0.15013672 12.91992188 -0.17578125 C18.36523938 -0.21372771 22.85499388 0.18747357 28 2 C28 2.99 28 3.98 28 5 C28.99 5.33 29.98 5.66 31 6 C19.45 6 7.9 6 -4 6 C-3.01 5.67 -2.02 5.34 -1 5 C-0.67 3.35 -0.34 1.7 0 0 Z " fill="#3C0A49" transform="translate(160,97)"/>
<path d="M0 0 C0.66 0.33 1.32 0.66 2 1 C2 5.29 2 9.58 2 14 C3.32 14.33 4.64 14.66 6 15 C5.67 18.96 5.34 22.92 5 27 C21.17 27 37.34 27 54 27 C54 27.33 54 27.66 54 28 C46.89755001 28.02526787 39.79511152 28.04283201 32.69262695 28.05493164 C30.27432828 28.05997349 27.85603267 28.06680678 25.43774414 28.07543945 C21.97020717 28.08751157 18.50271034 28.09322963 15.03515625 28.09765625 C13.94662857 28.10281754 12.85810089 28.10797882 11.73658752 28.11329651 C10.23514442 28.11340981 10.23514442 28.11340981 8.70336914 28.11352539 C7.37433311 28.11685631 7.37433311 28.11685631 6.01844788 28.12025452 C4 28 4 28 3 27 C2.54540142 24.34536879 2.29756762 21.67810862 2 19 C1.62488281 19.53109375 1.24976563 20.0621875 0.86328125 20.609375 C-4.94435858 28.625966 -4.94435858 28.625966 -9 31 C-12.8125 31.25 -12.8125 31.25 -16 31 C-16 30.67 -16 30.34 -16 30 C-14.80375 29.814375 -13.6075 29.62875 -12.375 29.4375 C-7.33364959 28.18610096 -4.71464058 25.31403073 -2 21 C0.28199209 16.63646108 0.23682375 12.50022222 0.125 7.6875 C0.11597656 6.94693359 0.10695312 6.20636719 0.09765625 5.44335938 C0.07424213 3.62876533 0.03837615 1.81433929 0 0 Z " fill="#F3D7D4" transform="translate(186,196)"/>
<path d="M0 0 C0.99 0.33 1.98 0.66 3 1 C2.01 2.32 1.02 3.64 0 5 C2.31 5.66 4.62 6.32 7 7 C7 7.66 7 8.32 7 9 C2.90996141 10.14982602 -1.03177051 10.11094256 -5.25 10.0625 C-5.99507812 10.05798828 -6.74015625 10.05347656 -7.5078125 10.04882812 C-9.3385764 10.03709246 -11.16929873 10.0191585 -13 10 C-13.33 9.01 -13.66 8.02 -14 7 C-13.505 6.54625 -13.01 6.0925 -12.5 5.625 C-10.77390663 4.12364481 -10.77390663 4.12364481 -11 2 C-10.06027344 1.90912109 -10.06027344 1.90912109 -9.1015625 1.81640625 C-7.87566406 1.69072266 -7.87566406 1.69072266 -6.625 1.5625 C-5.81289062 1.48128906 -5.00078125 1.40007812 -4.1640625 1.31640625 C-1.95727195 1.10909886 -1.95727195 1.10909886 0 0 Z " fill="#290038" transform="translate(192,346)"/>
<path d="M0 0 C0.33 0.66 0.66 1.32 1 2 C-0.1188598 4.31655526 -1.292734 6.51784973 -2.5625 8.75 C-9.78820507 20.80100495 -9.78820507 20.80100495 -13 34 C-12.14341797 33.89171875 -12.14341797 33.89171875 -11.26953125 33.78125 C-4.16333588 32.96782223 2.85302234 32.89918057 10 33 C10 33.33 10 33.66 10 34 C6.97961911 34.33794471 3.95880244 34.67048433 0.9375 35 C0.08994141 35.09539062 -0.75761719 35.19078125 -1.63085938 35.2890625 C-6.45472589 35.81056158 -11.14836264 36.10532727 -16 36 C-15.40259977 30.62339791 -13.58755394 26.24488902 -11.375 21.375 C-11.02179688 20.58754395 -10.66859375 19.80008789 -10.3046875 18.98876953 C-7.29005434 12.38753039 -3.85924946 6.15067882 0 0 Z " fill="#F1EBF5" transform="translate(135,59)"/>
<path d="M0 0 C1.65 0 3.3 0 5 0 C5.33 2.64 5.66 5.28 6 8 C5.01 8.33 4.02 8.66 3 9 C2.3162955 10.32467746 1.65035814 11.65863633 1 13 C0.01 13.66 -0.98 14.32 -2 15 C-2 11.04 -2 7.08 -2 3 C-1.34 3 -0.68 3 0 3 C0 2.01 0 1.02 0 0 Z " fill="#2C0147" transform="translate(350,183)"/>
<path d="M0 0 C0.66 0.33 1.32 0.66 2 1 C0.9275 1.721875 -0.145 2.44375 -1.25 3.1875 C-3.7375944 4.94433226 -5.25619336 6.32207166 -7.1875 8.75 C-9.21892389 11.27176759 -9.95519847 11.41068358 -13 12 C-15.02331646 13.61865317 -15.98601121 14.97124527 -17.125 17.3125 C-19.92994133 21.33291591 -23.86030457 23.47452543 -28 26 C-22.39243717 14.31134681 -10.43917948 7.04248334 0 0 Z " fill="#C6B8CD" transform="translate(50,119)"/>
<path d="M0 0 C2.3189679 1.1165401 4.45488056 2.29242321 6.625 3.6875 C7.40875 4.120625 8.1925 4.55375 9 5 C9.66 4.67 10.32 4.34 11 4 C11.38218767 5.65614657 11.71395102 7.32457024 12 9 C11.67 9.33 11.34 9.66 11 10 C12.4540625 10.8971875 12.4540625 10.8971875 13.9375 11.8125 C17.94758497 14.67684641 18.1856146 17.34636915 19 22 C19 22.99 19 23.98 19 25 C18.22076172 23.91332031 18.22076172 23.91332031 17.42578125 22.8046875 C12.89415245 16.47992937 12.89415245 16.47992937 8 10.4375 C6 8 6 8 6 6 C5.34 6 4.68 6 4 6 C2.61061923 4.03852126 1.2739589 2.03833424 0 0 Z " fill="#B39AB5" transform="translate(217,37)"/>
<path d="M0 0 C0.33 0 0.66 0 1 0 C1.71866291 4.71297605 2.43050318 9.42691528 3.13623047 14.1418457 C3.37690188 15.74336052 3.61938683 17.34460395 3.86376953 18.94555664 C4.21612026 21.2559707 4.56178767 23.56730455 4.90625 25.87890625 C5.07030334 26.9402755 5.07030334 26.9402755 5.2376709 28.02308655 C5.88393101 32.41424193 6.1010026 36.57861117 6 41 C0.30860098 39.90301833 -4.74567937 38.45946923 -10 36 C-6.07438708 34.69146236 -4.58007807 35.80572327 -0.9375 37.40625 C1.18350742 38.26122821 1.18350742 38.26122821 4 37 C3.87882812 36.16339844 3.75765625 35.32679688 3.6328125 34.46484375 C3.1810678 31.32695559 2.73439284 28.18839694 2.29101562 25.04931641 C2.09899874 23.69714379 1.90502971 22.34524677 1.70898438 20.99365234 C0.68969881 13.95746166 -0.2904876 7.1169462 0 0 Z " fill="#E8DDEB" transform="translate(93,208)"/>
<path d="M0 0 C0.99 0.33 1.98 0.66 3 1 C2.67 4.3 2.34 7.6 2 11 C-2.29 11 -6.58 11 -11 11 C-10.34 9.68 -9.68 8.36 -9 7 C-9.66 6.67 -10.32 6.34 -11 6 C-8.69 6 -6.38 6 -4 6 C-4 5.34 -4 4.68 -4 4 C-3.01 4.33 -2.02 4.66 -1 5 C-1.66 5.66 -2.32 6.32 -3 7 C-2.01 7 -1.02 7 0 7 C-0.185625 6.030625 -0.37125 5.06125 -0.5625 4.0625 C-0.706875 3.051875 -0.85125 2.04125 -1 1 C-0.67 0.67 -0.34 0.34 0 0 Z " fill="#BF3209" transform="translate(245,156)"/>
<path d="M0 0 C0.33 0 0.66 0 1 0 C1.0154612 0.91748268 1.0154612 0.91748268 1.03123474 1.85350037 C1.13906745 8.19582316 1.25368342 14.53799714 1.37231445 20.88012695 C1.4157381 23.24988708 1.45740749 25.61968 1.49731445 27.98950195 C1.55483768 31.38763333 1.61858303 34.78559843 1.68359375 38.18359375 C1.70030624 39.25024765 1.71701874 40.31690155 1.73423767 41.4158783 C1.75418289 42.39681961 1.77412811 43.37776093 1.79467773 44.38842773 C1.81022202 45.25668686 1.8257663 46.12494598 1.84178162 47.01951599 C1.78462425 49.00080779 1.78462425 49.00080779 3 50 C3.04080783 51.99958364 3.04254356 54.00045254 3 56 C1.515 56.495 1.515 56.495 0 57 C0 38.19 0 19.38 0 0 Z " fill="#270030" transform="translate(121,160)"/>
<path d="M0 0 C1 3 1 3 -0.58984375 6.22265625 C-1.35971981 7.51026849 -2.14313714 8.78984841 -2.9375 10.0625 C-3.34411865 10.72773682 -3.7507373 11.39297363 -4.16967773 12.07836914 C-7.69201241 17.73416985 -11.64420231 22.95582011 -16 28 C-17 26 -17 26 -16.0625 22.875 C-15.711875 21.92625 -15.36125 20.9775 -15 20 C-14.01 20 -13.02 20 -12 20 C-11.731875 19.236875 -11.46375 18.47375 -11.1875 17.6875 C-10 15 -10 15 -8.5625 13.625 C-6.7234668 11.90495863 -6.7234668 11.90495863 -5.5625 8.625 C-4.07635625 5.1771465 -2.46173814 2.80128822 0 0 Z " fill="#D2C4D8" transform="translate(253,303)"/>
<path d="M0 0 C0.76763672 -0.020625 1.53527344 -0.04125 2.32617188 -0.0625 C4.56640625 -0.078125 4.56640625 -0.078125 8.4375 0.25 C9.4275 1.24 10.4175 2.23 11.4375 3.25 C2.5275 3.25 -6.3825 3.25 -15.5625 3.25 C-10.5163003 -0.11413314 -5.89236559 0.03977968 0 0 Z " fill="#5F3571" transform="translate(175.5625,99.75)"/>
<path d="M0 0 C0.42667969 0.3403125 0.85335937 0.680625 1.29296875 1.03125 C7.54808869 5.8805801 14.22549624 9.93116695 21 14 C20.01 14.66 19.02 15.32 18 16 C17.01 15.01 16.02 14.02 15 13 C15 13.99 15 14.98 15 16 C11.65851561 14.82596494 9.18896282 13.84565166 7 11 C6.896875 10.38125 6.79375 9.7625 6.6875 9.125 C5.8706905 6.60031609 4.98481782 6.00137397 2.9375 4.375 C1.968125 3.59125 0.99875 2.8075 0 2 C0 1.34 0 0.68 0 0 Z " fill="#917897" transform="translate(150,328)"/>
<path d="M0 0 C0.33 0 0.66 0 1 0 C1.05945801 0.85827393 1.05945801 0.85827393 1.12011719 1.73388672 C1.86018892 11.97427154 2.73875045 22.13124113 4.875 32.1875 C5.09881348 33.30777588 5.09881348 33.30777588 5.32714844 34.45068359 C6.07197524 37.71406075 6.65172693 39.67532785 9.1328125 41.98828125 C9.74898437 42.32214844 10.36515625 42.65601563 11 43 C9.35 43 7.7 43 6 43 C0.88462758 28.57464978 -0.16765194 15.18181419 0 0 Z " fill="#F6F2F8" transform="translate(107,211)"/>
<path d="M0 0 C0.99 0 1.98 0 3 0 C1.50031861 4.04913976 -1.1601592 7.06453369 -5 9 C-8.37816747 9.40840532 -11.61600221 9.30094842 -15 9 C-15.33 8.01 -15.66 7.02 -16 6 C-15.18015625 5.90203125 -14.3603125 5.8040625 -13.515625 5.703125 C-12.43796875 5.55359375 -11.3603125 5.4040625 -10.25 5.25 C-9.18265625 5.11078125 -8.1153125 4.9715625 -7.015625 4.828125 C-3.56674212 3.88102245 -2.39560934 2.56226042 0 0 Z " fill="#340736" transform="translate(181,217)"/>
<path d="M0 0 C3.88467695 1.47349815 5.22018954 3.284959 7 7 C7.3984375 10.6640625 7.3984375 10.6640625 7.375 14.625 C7.38273438 15.93726563 7.39046875 17.24953125 7.3984375 18.6015625 C7 22 7 22 4 25 C4 19.06 4 13.12 4 7 C3.01 7.33 2.02 7.66 1 8 C1.20625 7.236875 1.4125 6.47375 1.625 5.6875 C2.33391203 2.78114056 2.33391203 2.78114056 0 0 Z " fill="#D49A90" transform="translate(245,191)"/>
<path d="M0 0 C3.57296848 0.54465983 6.9657056 0.58486068 10.578125 0.55078125 C11.82335937 0.54175781 13.06859375 0.53273438 14.3515625 0.5234375 C15.29257813 0.51183594 16.23359375 0.50023437 17.203125 0.48828125 C17.203125 0.81828125 17.203125 1.14828125 17.203125 1.48828125 C16.44128906 1.54886719 15.67945313 1.60945313 14.89453125 1.671875 C13.86199219 1.75566406 12.82945312 1.83945312 11.765625 1.92578125 C10.11433594 2.05919922 10.11433594 2.05919922 8.4296875 2.1953125 C5.81466502 2.43275401 3.2394954 2.74943939 0.640625 3.11328125 C-4.55615939 3.73422056 -9.62400092 3.11676128 -14.796875 2.48828125 C-10.14583608 -1.43926273 -5.73011321 -1.04838663 0 0 Z " fill="#2E0540" transform="translate(172.796875,271.51171875)"/>
<path d="M0 0 C0.86625 0.763125 1.7325 1.52625 2.625 2.3125 C8.57316743 7.42324427 14.81630716 12.17997867 21 17 C20.01 17.66 19.02 18.32 18 19 C13 14 13 14 11.4375 12.25 C10.06704099 10.86158028 10.06704099 10.86158028 8.125 10.5625 C4.9848989 9.73129677 3.28405438 8.28405438 1 6 C0.1875 2.75 0.1875 2.75 0 0 Z " fill="#967899" transform="translate(38,212)"/>
<path d="M0 0 C0.99 0.33 1.98 0.66 3 1 C2.85769192 2.41702513 2.71099254 3.8336096 2.5625 5.25 C2.48128906 6.03890625 2.40007812 6.8278125 2.31640625 7.640625 C1.72771414 12.03037849 1.72771414 12.03037849 1 14 C0.01 14.33 -0.98 14.66 -2 15 C-2.66 15.66 -3.32 16.32 -4 17 C-3.855625 16.175 -3.71125 15.35 -3.5625 14.5 C-3.14864367 11.92489392 -2.83051993 9.40176394 -2.5625 6.8125 C-2 3 -2 3 0 0 Z " fill="#2D023C" transform="translate(109,112)"/>
<path d="M0 0 C0.99 0.66 1.98 1.32 3 2 C3.99 2.33 4.98 2.66 6 3 C6 3.66 6 4.32 6 5 C-0.64409958 5.21432579 -6.53205867 4.51233701 -13 3 C-8.25603118 0.62801559 -5.46280572 -0.28751609 0 0 Z " fill="#2F0B38" transform="translate(221,101)"/>
<path d="M0 0 C6.6 0 13.2 0 20 0 C19.67 0.99 19.34 1.98 19 3 C13.06 3 7.12 3 1 3 C0.67 2.01 0.34 1.02 0 0 Z " fill="#2E0138" transform="translate(145,160)"/>
<path d="M0 0 C6.71244635 5.10729614 6.71244635 5.10729614 8 10 C8 10.99 8 11.98 8 13 C4.32943063 11.52202738 2.58914217 9.52384523 0.25 6.375 C-0.36359375 5.55773437 -0.9771875 4.74046875 -1.609375 3.8984375 C-2.06828125 3.27195313 -2.5271875 2.64546875 -3 2 C-2.01 1.34 -1.02 0.68 0 0 Z " fill="#8B608B" transform="translate(329,149)"/>
<path d="M0 0 C9.59453303 2.89066059 9.59453303 2.89066059 13 6 C12.67 6.66 12.34 7.32 12 8 C7.31729991 7.54091176 3.70633376 7.03245489 0 4 C0 2.68 0 1.36 0 0 Z " fill="#31063E" transform="translate(76,241)"/>
<path d="M0 0 C2.89293338 3.51930512 5.49377675 7.13411042 8 10.9375 C8.99 12.43603516 8.99 12.43603516 10 13.96484375 C10.66 14.96644531 11.32 15.96804688 12 17 C13.3309722 19.00158619 14.66528446 21.00090597 16 23 C14.68 23 13.36 23 12 23 C11.87625 22.360625 11.7525 21.72125 11.625 21.0625 C11.41875 20.381875 11.2125 19.70125 11 19 C10.34 18.67 9.68 18.34 9 18 C9 17.34 9 16.68 9 16 C8.34 16 7.68 16 7 16 C6.01246936 14.27559635 5.03531194 12.54524974 4.0625 10.8125 C3.24458984 9.36810547 3.24458984 9.36810547 2.41015625 7.89453125 C1.09420667 5.19337158 0.42698113 2.95643899 0 0 Z " fill="#542B60" transform="translate(131,303)"/>
<path d="M0 0 C1.46841427 2.93682854 0.76696084 4.86824322 0 8 C-0.99179572 9.00813752 -1.99239458 10.00766371 -3 11 C-3.98828669 12.7596416 -3.98828669 12.7596416 -4.75390625 14.6875 C-5.05103516 15.38617188 -5.34816406 16.08484375 -5.65429688 16.8046875 C-5.95400391 17.52914062 -6.25371094 18.25359375 -6.5625 19 C-7.16533282 20.4386074 -7.77071073 21.87615155 -8.37890625 23.3125 C-8.6426001 23.94800781 -8.90629395 24.58351563 -9.17797852 25.23828125 C-10 27 -10 27 -12 30 C-11.47384284 24.02094135 -9.63386157 19.29737823 -7.125 13.875 C-6.77308594 13.08996094 -6.42117187 12.30492188 -6.05859375 11.49609375 C-4.2505926 7.51042578 -2.36055587 3.69671957 0 0 Z " fill="#DDD1DD" transform="translate(120,59)"/>
<path d="M0 0 C0.66 0.33 1.32 0.66 2 1 C1.44570312 1.61488281 0.89140625 2.22976562 0.3203125 2.86328125 C-0.76636719 4.07564453 -0.76636719 4.07564453 -1.875 5.3125 C-2.59429687 6.11300781 -3.31359375 6.91351563 -4.0546875 7.73828125 C-6.34787467 10.40445669 -7.85620705 12.44879367 -8.75 15.875 C-10.40083908 20.0020977 -12.45957237 21.38316219 -16 24 C-12.60992092 14.82198102 -6.66012853 7.06499956 0 0 Z " fill="#E6DCE9" transform="translate(137,35)"/>
<path d="M0 0 C0 0.66 0 1.32 0 2 C-3.75399798 3.2039337 -7.33217412 3.09877617 -11.25 3.0625 C-12.51328125 3.05347656 -13.7765625 3.04445313 -15.078125 3.03515625 C-16.04234375 3.02355469 -17.0065625 3.01195312 -18 3 C-6.0126183 -3.00630915 -6.0126183 -3.00630915 0 0 Z " fill="#240231" transform="translate(199,353)"/>
<path d="M0 0 C0.79596365 2.69138789 1.04361747 3.83346058 0.3125 6.625 C-1.16625774 9.30084735 -2.17750049 9.96508351 -5 11 C-5 11.66 -5 12.32 -5 13 C-6.60049704 13.39036513 -8.20562371 13.76178619 -9.8125 14.125 C-10.70582031 14.33382812 -11.59914063 14.54265625 -12.51953125 14.7578125 C-15 15 -15 15 -18 13 C-17.00419922 12.70996094 -17.00419922 12.70996094 -15.98828125 12.4140625 C-14.17082858 11.87811295 -12.35708134 11.32946796 -10.546875 10.76953125 C-8.73618195 10.22243534 -6.90427005 9.74355257 -5.0625 9.3125 C-1.71141939 7.17999416 -1.05709 3.6955179 0 0 Z " fill="#BFAEC5" transform="translate(107,89)"/>
<path d="M0 0 C0 0.99 0 1.98 0 3 C-1.33333333 4.33333333 -2.66666667 5.66666667 -4 7 C-4.33 7.845625 -4.66 8.69125 -5 9.5625 C-6.65891797 13.60611256 -10.07865038 15.35556306 -14 17 C-14.99 17 -15.98 17 -17 17 C-16.35933594 16.443125 -15.71867187 15.88625 -15.05859375 15.3125 C-9.61569847 10.5104225 -4.61312349 5.6060143 0 0 Z " fill="#BBAAC0" transform="translate(335,213)"/>
<path d="M0 0 C3.7602985 0.58107632 6.53035032 1.65199496 9.8125 3.5625 C10.60269531 4.01753906 11.39289063 4.47257813 12.20703125 4.94140625 C12.79871094 5.29074219 13.39039062 5.64007813 14 6 C11 7 11 7 8.8125 6.0625 C8.214375 5.711875 7.61625 5.36125 7 5 C7 5.99 7 6.98 7 8 C4.69 7.34 2.38 6.68 0 6 C0.66 5.67 1.32 5.34 2 5 C2 3.68 2 2.36 2 1 C1.34 0.67 0.68 0.34 0 0 Z " fill="#8B6F92" transform="translate(69,236)"/>
<path d="M0 0 C7.52719602 -0.25515919 14.58851545 0.71702277 22 2 C22 2.33 22 2.66 22 3 C14.41 3 6.82 3 -1 3 C-0.67 2.01 -0.34 1.02 0 0 Z " fill="#533466" transform="translate(137,192)"/>
<path d="M0 0 C0 4.04939625 -1.64464444 5.76979808 -4 9 C-4.495 9.474375 -4.99 9.94875 -5.5 10.4375 C-7.90795383 12.94578524 -9.33517962 15.95739723 -11 19 C-11.66 19 -12.32 19 -13 19 C-12.690625 18.236875 -12.38125 17.47375 -12.0625 16.6875 C-11.32106407 14.81210323 -10.63771783 12.91315348 -10 11 C-9.34 11 -8.68 11 -8 11 C-7.7525 10.030625 -7.505 9.06125 -7.25 8.0625 C-6.8375 7.051875 -6.425 6.04125 -6 5 C-4 4.375 -4 4.375 -2 4 C-0.71563266 2.0162233 -0.71563266 2.0162233 0 0 Z " fill="#856C8E" transform="translate(141,50)"/>
<path d="M0 0 C0.66 0.33 1.32 0.66 2 1 C-0.65239081 3.01958691 -3.32088662 5.01600793 -6 7 C-6.58136719 7.43699219 -7.16273438 7.87398437 -7.76171875 8.32421875 C-9.3125 9.4375 -9.3125 9.4375 -12 11 C-12.99 10.67 -13.98 10.34 -15 10 C-11.09215294 4.38246985 -8.65666997 3.30950885 -2 2 C-1.34 1.34 -0.68 0.68 0 0 Z " fill="#B099B3" transform="translate(325,240)"/>
<path d="M0 0 C2.5 1.1875 2.5 1.1875 5 3 C5.3125 5.6875 5.3125 5.6875 5 8 C1.84669446 7.39305845 -0.18888867 6.3583335 -2.75 4.4375 C-3.36359375 3.98246094 -3.9771875 3.52742188 -4.609375 3.05859375 C-5.06828125 2.70925781 -5.5271875 2.35992187 -6 2 C-4 2 -2 2 0 2 C0 1.34 0 0.68 0 0 Z " fill="#7C6086" transform="translate(155,343)"/>
<path d="M0 0 C0.66 1.32 1.32 2.64 2 4 C1.25556641 4.54527344 1.25556641 4.54527344 0.49609375 5.1015625 C-4.17603477 8.55911492 -8.62578697 12.1725636 -13 16 C-13.66 15.67 -14.32 15.34 -15 15 C-14.25234375 14.33613281 -13.5046875 13.67226563 -12.734375 12.98828125 C-11.73940016 12.09655851 -10.74461877 11.20461989 -9.75 10.3125 C-8.28820312 9.00732422 -8.28820312 9.00732422 -6.796875 7.67578125 C-4.26347429 5.25206689 -2.11227089 2.7912151 0 0 Z " fill="#DFD8E3" transform="translate(227,320)"/>
<path d="M0 0 C0.80179688 0.05220703 1.60359375 0.10441406 2.4296875 0.15820312 C4.41179103 0.28798371 6.39344499 0.42459735 8.375 0.5625 C8.375 0.8925 8.375 1.2225 8.375 1.5625 C6.78558594 1.65337891 6.78558594 1.65337891 5.1640625 1.74609375 C3.77602779 1.83050127 2.38800768 1.91514917 1 2 C0.30132812 2.03931641 -0.39734375 2.07863281 -1.1171875 2.11914062 C-4.99860492 2.30530134 -4.99860492 2.30530134 -8.625 3.5625 C-8.625 6.2025 -8.625 8.8425 -8.625 11.5625 C-9.615 11.8925 -10.605 12.2225 -11.625 12.5625 C-11.51152381 10.58263918 -11.3839065 8.60358402 -11.25 6.625 C-11.18039063 5.52285156 -11.11078125 4.42070312 -11.0390625 3.28515625 C-10.90242187 2.38667969 -10.76578125 1.48820313 -10.625 0.5625 C-7.2967269 -1.10163655 -3.62766027 -0.25617406 0 0 Z " fill="#D3350C" transform="translate(215.625,165.4375)"/>
<path d="M0 0 C0 0.66 0 1.32 0 2 C-0.80824219 2.32613281 -1.61648437 2.65226563 -2.44921875 2.98828125 C-3.51785156 3.42527344 -4.58648437 3.86226562 -5.6875 4.3125 C-6.74324219 4.74175781 -7.79898438 5.17101562 -8.88671875 5.61328125 C-14.32037105 7.79963927 -14.32037105 7.79963927 -18 12 C-19.32 11.67 -20.64 11.34 -22 11 C-6.69072165 0 -6.69072165 0 0 0 Z " fill="#5F366F" transform="translate(172,13)"/>
<path d="M0 0 C0.99 0.33 1.98 0.66 3 1 C0.875 3.5625 0.875 3.5625 -2 6 C-5.34477519 5.86620899 -7.83554251 5.05481916 -11 4 C-11 3.34 -11 2.68 -11 2 C-10.06027344 1.90912109 -10.06027344 1.90912109 -9.1015625 1.81640625 C-7.87566406 1.69072266 -7.87566406 1.69072266 -6.625 1.5625 C-5.81289062 1.48128906 -5.00078125 1.40007812 -4.1640625 1.31640625 C-1.95727195 1.10909886 -1.95727195 1.10909886 0 0 Z " fill="#370047" transform="translate(192,346)"/>
<path d="M0 0 C2.95857409 -0.05379226 5.91617721 -0.09357093 8.875 -0.125 C9.71675781 -0.14175781 10.55851563 -0.15851563 11.42578125 -0.17578125 C12.23144531 -0.18222656 13.03710938 -0.18867188 13.8671875 -0.1953125 C14.98262939 -0.21102295 14.98262939 -0.21102295 16.12060547 -0.22705078 C18 0 18 0 20 2 C19.67 2.33 19.34 2.66 19 3 C16.3574618 2.96157383 13.75975565 2.85474971 11.125 2.6875 C10.02478516 2.63432617 10.02478516 2.63432617 8.90234375 2.58007812 C5.1598891 2.35171341 3.17877013 2.11918009 0 0 Z " fill="#411652" transform="translate(146,192)"/>
<path d="M0 0 C0.99 0.495 0.99 0.495 2 1 C2 1.66 2 2.32 2 3 C3.32 3.33 4.64 3.66 6 4 C6 4.66 6 5.32 6 6 C6.99 6.33 7.98 6.66 9 7 C8.67 8.65 8.34 10.3 8 12 C4.72257902 8.89973691 2.06895163 6.02901106 0 2 C0 1.34 0 0.68 0 0 Z " fill="#9C7E9E" transform="translate(124,315)"/>
<path d="M0 0 C-9.62353922 2.16163254 -18.11047358 3.55460359 -28 2 C-28 1.67 -28 1.34 -28 1 C-24.0842664 0.63496641 -20.1673377 0.28486118 -16.25 -0.0625 C-15.13882813 -0.16626953 -14.02765625 -0.27003906 -12.8828125 -0.37695312 C-11.27792969 -0.51713867 -11.27792969 -0.51713867 -9.640625 -0.66015625 C-8.65610352 -0.74918213 -7.67158203 -0.83820801 -6.65722656 -0.92993164 C-4.18587734 -0.9950986 -2.34204999 -0.74100129 0 0 Z " fill="#5F3877" transform="translate(237,262)"/>
<path d="M0 0 C0.5775 0.226875 1.155 0.45375 1.75 0.6875 C1.03457031 1.07550781 0.31914062 1.46351562 -0.41796875 1.86328125 C-3.57374421 3.89603593 -5.94574418 6.18846403 -8.5625 8.875 C-9.44550781 9.77605469 -10.32851562 10.67710938 -11.23828125 11.60546875 C-11.90214844 12.29253906 -12.56601563 12.97960938 -13.25 13.6875 C-13.91 13.3575 -14.57 13.0275 -15.25 12.6875 C-13.83791833 11.07929588 -12.42013964 9.47609292 -11 7.875 C-10.21109375 6.98167969 -9.4221875 6.08835937 -8.609375 5.16796875 C-3.26267388 -0.45314915 -3.26267388 -0.45314915 0 0 Z " fill="#4A1D58" transform="translate(151.25,25.3125)"/>
<path d="M0 0 C0.99 0.33 1.98 0.66 3 1 C2.67 4.3 2.34 7.6 2 11 C-2.29 11 -6.58 11 -11 11 C-11 10.67 -11 10.34 -11 10 C-7.04 10 -3.08 10 1 10 C0.649375 8.535625 0.29875 7.07125 -0.0625 5.5625 C-0.42403223 4.05257128 -0.74804092 2.53202706 -1 1 C-0.67 0.67 -0.34 0.34 0 0 Z " fill="#AE3B1B" transform="translate(245,156)"/>
<path d="M0 0 C0.66 0 1.32 0 2 0 C2.33 2.64 2.66 5.28 3 8 C2.01 8.33 1.02 8.66 0 9 C-0.33 9.66 -0.66 10.32 -1 11 C-2.659214 7.681572 -1.57259528 4.60735024 -1 1 C-0.67 0.67 -0.34 0.34 0 0 Z " fill="#1E0336" transform="translate(353,183)"/>
<path d="M0 0 C7.75 -0.125 7.75 -0.125 10 1 C10 1.66 10 2.32 10 3 C6.37 3.33 2.74 3.66 -1 4 C-0.67 2.68 -0.34 1.36 0 0 Z " fill="#2B023A" transform="translate(131,101)"/>
<path d="M0 0 C0.33 0 0.66 0 1 0 C1.05401695 2.91691525 1.09368066 5.83282724 1.125 8.75 C1.15013672 9.9875 1.15013672 9.9875 1.17578125 11.25 C1.18222656 12.04921875 1.18867188 12.8484375 1.1953125 13.671875 C1.20578613 14.4050293 1.21625977 15.13818359 1.22705078 15.89355469 C0.96777544 18.29896076 0.19225925 19.91251494 -1 22 C-1.66 22 -2.32 22 -3 22 C-2.86722656 21.41734375 -2.73445313 20.8346875 -2.59765625 20.234375 C-1.14906124 13.50951058 -0.44789343 6.85984142 0 0 Z " fill="#66306D" transform="translate(345,181)"/>
<path d="M0 0 C1.32 0 2.64 0 4 0 C2.54144353 3.68646141 0.69770955 5.16143971 -2.625 7.25 C-3.44226563 7.77078125 -4.25953125 8.2915625 -5.1015625 8.828125 C-6.04128906 9.40820312 -6.04128906 9.40820312 -7 10 C-5.12082408 6.03476641 -3.03513071 3.17966074 0 0 Z " fill="#A18CA8" transform="translate(29,135)"/>
<path d="M0 0 C2.31 0.33 4.62 0.66 7 1 C7 1.33 7 1.66 7 2 C5.35 2 3.7 2 2 2 C2.30035156 2.83144531 2.60070312 3.66289062 2.91015625 4.51953125 C3.29042969 5.60621094 3.67070313 6.69289063 4.0625 7.8125 C4.44535156 8.89144531 4.82820313 9.97039062 5.22265625 11.08203125 C6 14 6 14 5 17 C2.54582388 11.326858 0.53753096 6.18160604 0 0 Z " fill="#EEE2F1" transform="translate(117,267)"/>
<path d="M0 0 C0 0.99 0 1.98 0 3 C-3.3 3.33 -6.6 3.66 -10 4 C-9.67 3.01 -9.34 2.02 -9 1 C-5.8035914 -0.06546953 -3.34252724 -0.07427838 0 0 Z " fill="#280338" transform="translate(129,103)"/>
<path d="M0 0 C1.22589844 0.01353516 1.22589844 0.01353516 2.4765625 0.02734375 C3.41628906 0.04474609 3.41628906 0.04474609 4.375 0.0625 C4.705 0.7225 5.035 1.3825 5.375 2.0625 C2.35631566 3.57184217 -0.29797229 3.23760672 -3.625 3.0625 C-4.615 2.4025 -5.605 1.7425 -6.625 1.0625 C-4.21954362 -0.14022819 -2.67503047 -0.03821472 0 0 Z " fill="#30073B" transform="translate(151.625,269.9375)"/>
<path d="M0 0 C1 3 1 3 0.22265625 5.04296875 C-0.16019531 5.75066406 -0.54304688 6.45835937 -0.9375 7.1875 C-1.31777344 7.90292969 -1.69804687 8.61835938 -2.08984375 9.35546875 C-2.54037109 10.16951172 -2.54037109 10.16951172 -3 11 C-3.66 10.67 -4.32 10.34 -5 10 C-4.67 8.02 -4.34 6.04 -4 4 C-3.34 4 -2.68 4 -2 4 C-1.34 2.68 -0.68 1.36 0 0 Z " fill="#2E063A" transform="translate(351,204)"/>
<path d="M0 0 C0.66 0.33 1.32 0.66 2 1 C1.071875 2.1446875 1.071875 2.1446875 0.125 3.3125 C-2.54297073 6.68669828 -4.20502676 8.91777207 -4.625 13.1875 C-4.74875 14.445625 -4.8725 15.70375 -5 17 C-5.33 17 -5.66 17 -6 17 C-6.55983773 7.48275862 -6.55983773 7.48275862 -3 3 C-1.3125 1.1875 -1.3125 1.1875 0 0 Z " fill="#C94233" transform="translate(196,157)"/>
<path d="M0 0 C1.32 0 2.64 0 4 0 C4 3.3 4 6.6 4 10 C3.34 10 2.68 10 2 10 C1.34 6.7 0.68 3.4 0 0 Z " fill="#2B073B" transform="translate(259,115)"/>
<path d="M0 0 C7.5 -0.375 7.5 -0.375 12 3 C8.37 3 4.74 3 1 3 C0.67 2.01 0.34 1.02 0 0 Z " fill="#25012F" transform="translate(145,160)"/>
<path d="M0 0 C2.3189679 1.1165401 4.45488056 2.29242321 6.625 3.6875 C7.40875 4.120625 8.1925 4.55375 9 5 C9.66 4.67 10.32 4.34 11 4 C11.33 5.65 11.66 7.3 12 9 C3.96428571 6.58928571 3.96428571 6.58928571 1.5 2.8125 C1.005 1.884375 0.51 0.95625 0 0 Z " fill="#8B6B8E" transform="translate(217,37)"/>
<path d="M0 0 C-0.33 1.32 -0.66 2.64 -1 4 C-3.31 4 -5.62 4 -8 4 C-8.33 3.01 -8.66 2.02 -9 1 C-2.25 0 -2.25 0 0 0 Z " fill="#2C0039" transform="translate(174,222)"/>
<path d="M0 0 C4.875 2.75 4.875 2.75 6 5 C4.35 5.33 2.7 5.66 1 6 C1 5.34 1 4.68 1 4 C0.34 4 -0.32 4 -1 4 C-0.67 2.68 -0.34 1.36 0 0 Z " fill="#380942" transform="translate(319,129)"/>
<path d="M0 0 C1.32 0 2.64 0 4 0 C4.103125 0.639375 4.20625 1.27875 4.3125 1.9375 C4.539375 2.618125 4.76625 3.29875 5 4 C5.99 4.33 6.98 4.66 8 5 C6.68 5.99 5.36 6.98 4 8 C2.68 5.36 1.36 2.72 0 0 Z " fill="#481456" transform="translate(238,63)"/>
<path d="M0 0 C1 3 1 3 -0.1875 5.5 C-1.94150569 7.9193182 -3.51794573 9.37382651 -6 11 C-5.55530671 5.96014269 -3.28656638 3.62365012 0 0 Z " fill="#9E83A6" transform="translate(253,303)"/>
<path d="M0 0 C0.99 0 1.98 0 3 0 C3.33 0.66 3.66 1.32 4 2 C4.99 2.66 5.98 3.32 7 4 C4.75 4.6875 4.75 4.6875 2 5 C-0.3125 3.5625 -0.3125 3.5625 -2 2 C-1.34 1.34 -0.68 0.68 0 0 Z " fill="#300942" transform="translate(90,255)"/>
<path d="M0 0 C3.03852705 1.40976705 5.5939595 3.08870228 8.25 5.125 C8.95640625 5.66382813 9.6628125 6.20265625 10.390625 6.7578125 C10.92171875 7.16773438 11.4528125 7.57765625 12 8 C11.01 8.66 10.02 9.32 9 10 C5.73991357 6.83047153 2.77762123 3.60062011 0 0 Z " fill="#D3C3D7" transform="translate(47,221)"/>
<path d="M0 0 C3 3.625 3 3.625 3 7 C2.01 7 1.02 7 0 7 C-0.99 5.02 -1.98 3.04 -3 1 C-2.01 0.67 -1.02 0.34 0 0 Z " fill="#420B46" transform="translate(340,161)"/>
<path d="M0 0 C0.66 0.33 1.32 0.66 2 1 C-0.75264252 4.05849168 -3.00751252 5.87391379 -7 7 C-7.99 6.67 -8.98 6.34 -10 6 C-8.3811004 4.96951963 -6.75467511 3.95085322 -5.125 2.9375 C-4.22007812 2.36902344 -3.31515625 1.80054688 -2.3828125 1.21484375 C-1.20332031 0.61349609 -1.20332031 0.61349609 0 0 Z " fill="#D2CAD8" transform="translate(210,336)"/>
<path d="M0 0 C0.33 0.99 0.66 1.98 1 3 C-1.64 3 -4.28 3 -7 3 C-7.33 2.34 -7.66 1.68 -8 1 C-5.29120665 -0.35439668 -2.99066732 -0.06501451 0 0 Z " fill="#2C0636" transform="translate(134,223)"/>
<path d="M0 0 C0.1875 3.375 0.1875 3.375 0 7 C-0.99 7.66 -1.98 8.32 -3 9 C-3 6.36 -3 3.72 -3 1 C-1 0 -1 0 0 0 Z " fill="#200038" transform="translate(175,199)"/>
<path d="M0 0 C0.33 0 0.66 0 1 0 C1 3.3 1 6.6 1 10 C0.34 10 -0.32 10 -1 10 C-1 11.65 -1 13.3 -1 15 C-1.33 15 -1.66 15 -2 15 C-2.22577402 9.5814234 -1.46670113 5.22512279 0 0 Z " fill="#30043C" transform="translate(105,212)"/>
<path d="M0 0 C1.9375 0.625 1.9375 0.625 4 2 C4.75 5.125 4.75 5.125 5 8 C4.34 8 3.68 8 3 8 C0.95830515 5.09451118 0 3.59857954 0 0 Z " fill="#511653" transform="translate(234,54)"/>
<path d="M0 0 C0.33 0.99 0.66 1.98 1 3 C-3.75 7.875 -3.75 7.875 -6 9 C-4.68775452 5.06326356 -3.08089673 2.77280706 0 0 Z " fill="#AD95B2" transform="translate(127,50)"/>
<path d="M0 0 C0.33 0.99 0.66 1.98 1 3 C-0.43359375 5.04296875 -0.43359375 5.04296875 -2.4375 7.1875 C-3.09621094 7.90292969 -3.75492188 8.61835937 -4.43359375 9.35546875 C-4.95050781 9.89816406 -5.46742188 10.44085938 -6 11 C-6 7.39426104 -5.18292538 6.58663434 -3 3.8125 C-2.443125 3.09707031 -1.88625 2.38164063 -1.3125 1.64453125 C-0.879375 1.10183594 -0.44625 0.55914062 0 0 Z " fill="#4D2157" transform="translate(135,39)"/>
<path d="M0 0 C4.21912747 0.4794463 6.79663178 1.16625119 10 4 C9.01 4.495 9.01 4.495 8 5 C7.01 4.34 6.02 3.68 5 3 C2.37468476 2.83286431 2.37468476 2.83286431 0 3 C0 2.01 0 1.02 0 0 Z " fill="#AB2718" transform="translate(232,186)"/>
<path d="M0 0 C1.9375 0.8125 1.9375 0.8125 4 2 C4.33 2.99 4.66 3.98 5 5 C3.35 4.67 1.7 4.34 0 4 C0 2.68 0 1.36 0 0 Z " fill="#360C40" transform="translate(160,347)"/>
<path d="M0 0 C-2.97 2.475 -2.97 2.475 -6 5 C-6.66 4.67 -7.32 4.34 -8 4 C-7.67 2.68 -7.34 1.36 -7 0 C-2.25 -1.125 -2.25 -1.125 0 0 Z " fill="#9F8FA3" transform="translate(225,343)"/>
<path d="M0 0 C0.66 0 1.32 0 2 0 C2.25 2.3125 2.25 2.3125 2 5 C0 6.8125 0 6.8125 -2 8 C-1.34 5.36 -0.68 2.72 0 0 Z " fill="#95789A" transform="translate(238,323)"/>
<path d="M0 0 C0.66 1.32 1.32 2.64 2 4 C1.34 4.66 0.68 5.32 0 6 C-0.99 6 -1.98 6 -3 6 C-2.42655063 3.13275314 -2.1385485 2.1385485 0 0 Z " fill="#917899" transform="translate(227,320)"/>
<path d="M0 0 C2.72426311 2.35277269 3.8141763 4.62496331 5 8 C3.68 7.67 2.36 7.34 1 7 C0.67 4.69 0.34 2.38 0 0 Z " fill="#B2A1B7" transform="translate(28,198)"/>
<path d="M0 0 C0.99 0.33 1.98 0.66 3 1 C-0.465 3.97 -0.465 3.97 -4 7 C-4 4 -4 4 -2 1.8125 C-1.34 1.214375 -0.68 0.61625 0 0 Z " fill="#461054" transform="translate(38,129)"/>
<path d="M0 0 C1.07349791 4.29399165 0.79682816 5.19495213 -1 9 C-1.66 9 -2.32 9 -3 9 C-2.01 6.03 -1.02 3.06 0 0 Z " fill="#502055" transform="translate(245,291)"/>
<path d="M0 0 C0.33 0.99 0.66 1.98 1 3 C2.65 3 4.3 3 6 3 C5.34 3.66 4.68 4.32 4 5 C0.875 4.625 0.875 4.625 -2 4 C-1.34 2.68 -0.68 1.36 0 0 Z " fill="#BB1B07" transform="translate(213,189)"/>
</svg>
